# xmcd
#
# Track frame offsets:
#	150
#	17210
#	31760
#	49459
#	69720
#	87630
#	105085
#	123675
#	143797
#	160413
#	177641
#	190891
#
# Disc length: 2761 seconds
# Revision: 0
# Processed by: cddbd v1.5.2PL0 Copyright (c) Steve Scherf et al.
# Submitted via: dBpowerAMP V12.0
#
DISCID=ad0ac70c
DTITLE=Molly Venter - Love Me Like You Mean It
DYEAR=2008
DGENRE=Singer/Songwriter
TTITLE0=Shaky Ground
TTITLE1=Love Me Like You Mean It
TTITLE2=Happier Now
TTITLE3=Write a Letter
TTITLE4=Tonight
TTITLE5=Great Ocean
TTITLE6=In the Snow
TTITLE7=Good Mother
TTITLE8=Playing for Keeps
TTITLE9=Real Anymore
TTITLE10=Hello Fear
TTITLE11=Stars
EXTD=
EXTT0=
EXTT1=
EXTT2=
EXTT3=
EXTT4=
EXTT5=
EXTT6=
EXTT7=
EXTT8=
EXTT9=
EXTT10=
EXTT11=
PLAYORDER=
